<?xml version="1.0" encoding="UTF-8"?>
<svg id="Layer_1" xmlns="http://www.w3.org/2000/svg" version="1.1" viewBox="0 0 180 180">
  <!-- Generator: Adobe Illustrator 29.8.1, SVG Export Plug-In . SVG Version: 2.1.1 Build 2)  -->
  <defs>
    <style>
      .st0 {
        fill: #fff;
      }
    </style>
  </defs>
  <path class="st0" d="M90,0C40.3,0,0,40.3,0,90s40.3,90,90,90,90-40.3,90-90S139.7,0,90,0ZM18.2,78.3l22.9-23-14.7-28.9,28.9,14.6,22.9-22.9-4.9,32.1,28.8,14.7-32,5.2-5.1,32-14.8-28.9-32,5.1ZM64.2,153.9c0,0-.1,0-.2,0h0c0,0,.1,0,.2,0,21.8-5.5,44.3-13.3,60.2-29.5,11.7-11.6,19.6-27.1,24.6-43.1,1.8-5.6,3.3-11.4,5-17.4,13.7,55.3-34.5,103.6-89.8,90Z"/>
</svg>